<!-- SPDX-License-Identifier: MIT -->

<svg width="200" height="200" viewBox="0 0 200 200" fill="none" xmlns="http://www.w3.org/2000/svg">
<g clip-path="url(#clip0_201_50)">
<g filter="url(#filter0_d_201_50)">
<rect x="10" y="10" width="180" height="180" rx="10" fill="#4A5E90"/>
<rect x="10.5" y="10.5" width="179" height="179" rx="9.5" stroke="black" stroke-opacity="0.1"/>
</g>
<g filter="url(#filter1_d_201_50)">
<path d="M25.6439 146.836C23.4266 149.298 23.6254 153.092 26.088 155.309L66.2178 191.442C68.6804 193.66 72.4742 193.461 74.6915 190.998C76.9088 188.536 76.71 184.742 74.2474 182.525L38.5764 150.406L70.6947 114.735C72.912 112.273 72.7132 108.479 70.2506 106.262C67.7881 104.044 63.9943 104.243 61.777 106.706L25.6439 146.836ZM179.583 137.008L29.7888 144.859L30.4168 156.842L180.211 148.992L179.583 137.008Z" fill="#497E25"/>
</g>
<path d="M74.125 62.5312L59.0625 104H52.9062L70.25 58.5H74.2188L74.125 62.5312ZM86.75 104L71.6562 62.5312L71.5625 58.5H75.5312L92.9375 104H86.75ZM85.9688 87.1562V92.0938H60.4062V87.1562H85.9688ZM104.438 56V104H98.625V56H104.438ZM127.875 70.1875V74.625H109.594V70.1875H127.875ZM115.781 61.9688H121.562V95.625C121.562 96.7708 121.74 97.6354 122.094 98.2188C122.448 98.8021 122.906 99.1875 123.469 99.375C124.031 99.5625 124.635 99.6562 125.281 99.6562C125.76 99.6562 126.26 99.6146 126.781 99.5312C127.323 99.4271 127.729 99.3438 128 99.2812L128.031 104C127.573 104.146 126.969 104.281 126.219 104.406C125.49 104.552 124.604 104.625 123.562 104.625C122.146 104.625 120.844 104.344 119.656 103.781C118.469 103.219 117.521 102.281 116.812 100.969C116.125 99.6354 115.781 97.8438 115.781 95.5938V61.9688Z" fill="black"/>
<g filter="url(#filter2_d_201_50)">
<path d="M183.912 58.97C186.375 56.7527 186.573 52.9589 184.356 50.4963L148.223 10.3665C146.006 7.90394 142.212 7.70512 139.749 9.92242C137.287 12.1397 137.088 15.9335 139.305 18.3961L171.424 54.067L135.753 86.1853C133.29 88.4026 133.091 92.1964 135.309 94.6589C137.526 97.1215 141.32 97.3203 143.782 95.103L183.912 58.97ZM29.7888 52.6525L179.583 60.5029L180.211 48.5193L30.4168 40.6689L29.7888 52.6525Z" fill="#C40F16"/>
</g>
<path d="M90.9332 111.012L81.2795 142.662L76.6687 142.904L87.8727 108.145L90.8452 107.989L90.9332 111.012ZM102.017 141.576L89.0842 111.109L88.8557 108.094L91.8282 107.938L106.651 141.333L102.017 141.576ZM100.77 128.991L100.964 132.689L81.8186 133.692L81.6248 129.994L100.77 128.991ZM125.467 134.479L124.446 115.006L128.799 114.778L130.127 140.103L125.984 140.32L125.467 134.479ZM126.006 129.1L127.806 128.959C127.894 130.644 127.796 132.214 127.513 133.668C127.244 135.106 126.747 136.368 126.021 137.454C125.296 138.541 124.317 139.413 123.084 140.073C121.85 140.716 120.329 141.085 118.519 141.18C117.286 141.245 116.145 141.125 115.097 140.82C114.064 140.514 113.161 140.006 112.388 139.295C111.616 138.585 110.995 137.639 110.526 136.459C110.073 135.278 109.802 133.845 109.714 132.16L108.858 115.823L113.188 115.596L114.047 131.98C114.106 133.119 114.281 134.056 114.57 134.792C114.873 135.512 115.255 136.078 115.715 136.492C116.189 136.89 116.704 137.16 117.259 137.303C117.83 137.446 118.412 137.501 119.005 137.47C120.846 137.374 122.287 136.946 123.326 136.187C124.365 135.413 125.088 134.413 125.493 133.187C125.913 131.945 126.084 130.582 126.006 129.1ZM146.002 113.876L146.176 117.2L132.484 117.917L132.31 114.594L146.002 113.876ZM136.622 108.195L140.952 107.968L142.273 133.176C142.318 134.034 142.484 134.675 142.773 135.098C143.061 135.521 143.419 135.792 143.848 135.91C144.276 136.028 144.733 136.075 145.216 136.049C145.575 136.031 145.948 135.98 146.335 135.897C146.737 135.798 147.038 135.719 147.238 135.662L147.447 139.195C147.109 139.322 146.662 139.447 146.105 139.57C145.565 139.708 144.904 139.797 144.124 139.838C143.063 139.894 142.077 139.734 141.165 139.36C140.254 138.985 139.507 138.32 138.925 137.365C138.358 136.393 138.03 135.065 137.942 133.38L136.622 108.195ZM154.854 102.757L156.738 138.708L152.408 138.935L150.524 102.984L154.854 102.757ZM154.995 125.14L153.189 125.164C153.114 123.431 153.287 121.818 153.71 120.326C154.131 118.817 154.766 117.493 155.614 116.353C156.462 115.214 157.494 114.315 158.711 113.656C159.943 112.981 161.324 112.604 162.853 112.524C164.101 112.458 165.234 112.571 166.25 112.862C167.266 113.137 168.144 113.623 168.885 114.32C169.641 115.016 170.237 115.939 170.673 117.09C171.108 118.225 171.369 119.627 171.457 121.297L172.326 137.891L167.973 138.119L167.101 121.478C167.031 120.152 166.781 119.101 166.349 118.325C165.916 117.534 165.316 116.979 164.548 116.66C163.78 116.324 162.849 116.185 161.757 116.243C160.68 116.299 159.709 116.577 158.844 117.076C157.994 117.574 157.269 118.238 156.671 119.067C156.089 119.896 155.645 120.834 155.34 121.883C155.05 122.915 154.935 124.001 154.995 125.14Z" fill="black"/>
</g>
<defs>
<filter id="filter0_d_201_50" x="6" y="10" width="188" height="188" filterUnits="userSpaceOnUse" color-interpolation-filters="sRGB">
<feFlood flood-opacity="0" result="BackgroundImageFix"/>
<feColorMatrix in="SourceAlpha" type="matrix" values="0 0 0 0 0 0 0 0 0 0 0 0 0 0 0 0 0 0 127 0" result="hardAlpha"/>
<feOffset dy="4"/>
<feGaussianBlur stdDeviation="2"/>
<feComposite in2="hardAlpha" operator="out"/>
<feColorMatrix type="matrix" values="0 0 0 0 0 0 0 0 0 0 0 0 0 0 0 0 0 0 0.25 0"/>
<feBlend mode="normal" in2="BackgroundImageFix" result="effect1_dropShadow_201_50"/>
<feBlend mode="normal" in="SourceGraphic" in2="effect1_dropShadow_201_50" result="shape"/>
</filter>
<filter id="filter1_d_201_50" x="20.1027" y="104.721" width="164.108" height="96.263" filterUnits="userSpaceOnUse" color-interpolation-filters="sRGB">
<feFlood flood-opacity="0" result="BackgroundImageFix"/>
<feColorMatrix in="SourceAlpha" type="matrix" values="0 0 0 0 0 0 0 0 0 0 0 0 0 0 0 0 0 0 127 0" result="hardAlpha"/>
<feOffset dy="4"/>
<feGaussianBlur stdDeviation="2"/>
<feComposite in2="hardAlpha" operator="out"/>
<feColorMatrix type="matrix" values="0 0 0 0 0 0 0 0 0 0 0 0 0 0 0 0 0 0 0.25 0"/>
<feBlend mode="normal" in2="BackgroundImageFix" result="effect1_dropShadow_201_50"/>
<feBlend mode="normal" in="SourceGraphic" in2="effect1_dropShadow_201_50" result="shape"/>
</filter>
<filter id="filter2_d_201_50" x="25.7888" y="8.38124" width="164.108" height="96.263" filterUnits="userSpaceOnUse" color-interpolation-filters="sRGB">
<feFlood flood-opacity="0" result="BackgroundImageFix"/>
<feColorMatrix in="SourceAlpha" type="matrix" values="0 0 0 0 0 0 0 0 0 0 0 0 0 0 0 0 0 0 127 0" result="hardAlpha"/>
<feOffset dy="4"/>
<feGaussianBlur stdDeviation="2"/>
<feComposite in2="hardAlpha" operator="out"/>
<feColorMatrix type="matrix" values="0 0 0 0 0 0 0 0 0 0 0 0 0 0 0 0 0 0 0.25 0"/>
<feBlend mode="normal" in2="BackgroundImageFix" result="effect1_dropShadow_201_50"/>
<feBlend mode="normal" in="SourceGraphic" in2="effect1_dropShadow_201_50" result="shape"/>
</filter>
<clipPath id="clip0_201_50">
<rect width="200" height="200" fill="white"/>
</clipPath>
</defs>
</svg>
